# xmcd
#
# Track frame offsets:
#	150
#	3095
#	28512
#	50844
#	69420
#	88380
#	110470
#	127942
#	132225
#
# Disc length: 1909 seconds
#
# Revision: 0
# Processed by: cddbd v1.5.2PL0 Copyright (c) Steve Scherf et al.
# Submitted via: EasyCDDAExtractor 10.0.2.1
#
DISCID=73077309
DTITLE=Sinclair - Au mépris du danger CD2
DYEAR=2005
DGENRE=Funk
TTITLE0=Au mépris du danger
TTITLE1=Cette bonne vieille chose
TTITLE2=A pas de géant
TTITLE3=Remix "A la ronde"
TTITLE4=Bobby
TTITLE5=The way of loving you
TTITLE6=Il ne pense qu'à lui
TTITLE7=Lee Wu's noodle shop
TTITLE8=En action
EXTD=
EXTT0=
EXTT1=
EXTT2=
EXTT3=
EXTT4=
EXTT5=
EXTT6=
EXTT7=
EXTT8=
PLAYORDER=
